P3
# CREATOR: GIMP PNM Filter Version 1.1
1 2
255
1
2
3
4
5
6