P3
# CS4300 ASGN0
1 2
255
200
50
150
0
100
255
