P3
# CREATOR: GIMP PNM Filter Version 1.1
# Another Comment
1 2
127
100 25 75
0 50 127
